<?xml version="1.0" encoding="iso-8859-1"?>
<!-- Generator: Adobe Illustrator 19.0.0, SVG Export Plug-In . SVG Version: 6.00 Build 0)  -->
<svg version="1.1" id="Layer_1" xmlns="http://www.w3.org/2000/svg" xmlns:xlink="http://www.w3.org/1999/xlink" x="0px" y="0px"
	 viewBox="0 0 512.001 512.001" style="enable-background:new 0 0 512.001 512.001;" xml:space="preserve">
<path style="fill:#5D9BEB;" d="M512.001,256.006c0,141.395-114.606,255.998-255.996,255.994
	C114.606,512.004,0.001,397.402,0.001,256.006C-0.007,114.61,114.606,0,256.005,0C397.395,0,512.001,114.614,512.001,256.006z"/>
<path style="fill:#4988DB;" d="M500.978,330.43c-0.234-0.258-0.533-0.596-0.596-0.661c-0.153-0.161-0.347-0.258-0.511-0.401
	c-0.495-0.561-241.523-241.543-241.687-241.688c-0.494-0.56-0.869-0.974-0.972-1.082c-2.042-2.158-5.17-2.886-7.964-1.889
	c-2.791,1.008-4.724,3.581-4.914,6.542c-0.014,0.203-1.473,20.81-13.73,37.05c-11.907,15.778-8.283,28.969-5.068,35.429
	c1.927,3.867,4.714,7.324,7.978,10.135h-10.012l-1.481-0.022c-3.369-0.043-7.984-0.146-11.42,3.222
	c-1.428,1.408-3.135,3.93-3.135,7.984v175.482h-89.599c-4.128,0-7.468,3.339-7.468,7.467c0,17.125,7.007,32.124,18.626,42.813
	c0.496,0.49,98.825,98.865,99.341,99.341c0.131,0.13,0.263,0.26,0.394,0.394c8.954,0.946,18.037,1.456,27.244,1.456
	C371.506,512.002,469.097,435.513,500.978,330.43z"/>
<path style="fill:#F4F6F9;" d="M394.134,360.531h-89.6V212.059c0-19.425-14.098-34.169-34.597-37.485
	c7.002-5.773,11.725-14.709,12.139-25.049c1.401-34.745-23.793-61.79-24.865-62.927c-2.042-2.158-5.17-2.887-7.963-1.889
	c-2.793,1.006-4.725,3.58-4.914,6.541c-0.015,0.204-1.473,20.811-13.73,37.049c-11.907,15.779-8.284,28.97-5.068,35.43
	c1.926,3.867,4.714,7.325,7.978,10.135h-10.012l-1.481-0.022c-3.369-0.044-7.984-0.146-11.419,3.222
	c-1.429,1.407-3.135,3.931-3.135,7.984V360.53h-89.6c-4.127,0-7.467,3.34-7.467,7.467c0,34.052,27.665,59.733,64.341,59.733h162.517
	c36.677,0,64.341-25.681,64.341-59.733C401.601,363.871,398.261,360.531,394.134,360.531z M242.518,137.297
	c6.862-9.092,10.938-19.134,13.344-27.439c5.767,9.559,11.922,23.537,11.295,39.069c-0.394,9.793-7.146,17.471-15.371,17.471
	c-3.456,0-9.851-3.245-12.884-9.326C235.963,151.173,237.21,144.333,242.518,137.297z M261.025,188.798
	c14.226,0,28.576,7.189,28.576,23.261v23.415c-3.972-0.164-8.393,0.556-12.732,3.09c-11.397,6.657-12.236,20.212-12.907,31.099
	c-0.97,15.75-2.523,16.384-7.657,16.188c-0.933-0.036-1.211-0.285-1.509-0.62c-4.433-5.104-2.34-25.987-0.956-39.805
	c0.561-5.607,1.108-11.09,1.401-16.078c0.627-10.639-3.836-16.625-7.693-19.775c-7.206-5.881-17.604-6.286-25.149-5.577v-15.212
	L261.025,188.798z M222.401,219.039c5.442-0.65,12.386-0.613,15.707,2.105c0.692,0.569,2.538,2.07,2.231,7.321
	c-0.285,4.798-0.817,10.077-1.356,15.473c-2.114,21.138-4.119,41.11,4.543,51.086c3.091,3.558,7.299,5.549,12.17,5.746
	c0.467,0.022,0.911,0.029,1.356,0.029c19.957,0,21.117-18.857,21.824-30.217c0.612-9.961,1.327-16.669,5.527-19.126
	c1.825-1.059,3.661-1.212,5.199-1.056v110.132h-67.2V219.039H222.401z M337.259,412.798H174.742
	c-25.346,0-45.085-15.597-48.781-37.333H386.04C382.343,397.201,362.604,412.798,337.259,412.798z"/>
<g>
</g>
<g>
</g>
<g>
</g>
<g>
</g>
<g>
</g>
<g>
</g>
<g>
</g>
<g>
</g>
<g>
</g>
<g>
</g>
<g>
</g>
<g>
</g>
<g>
</g>
<g>
</g>
<g>
</g>
</svg>
